<?xml version="1.0" standalone="no"?><!DOCTYPE svg PUBLIC "-//W3C//DTD SVG 1.1//EN" "http://www.w3.org/Graphics/SVG/1.1/DTD/svg11.dtd"><svg t="1726124957303" class="icon" viewBox="0 0 1024 1024" version="1.1" xmlns="http://www.w3.org/2000/svg" p-id="37506" xmlns:xlink="http://www.w3.org/1999/xlink" width="256" height="256"><path d="M0 83.871274h258.468365v874.479286H0z" fill="#2D93BA" p-id="37507"></path><path d="M0 65.651523h258.468365v874.479287H0z" fill="#27A2DB" p-id="37508"></path><path d="M45.910855 140.878572h166.68624V409.480827H45.910855z" fill="#FFFFFF" p-id="37509"></path><path d="M72.164381 172.46364h114.181272v17.857231H72.164381zM72.164381 219.3683h114.181272v17.857231H72.164381zM72.164381 266.250042h114.181272v17.857231H72.164381zM72.164381 313.131784h114.181272v17.857231H72.164381zM72.164381 360.01561h114.181272v17.857231H72.164381z" fill="#EBF0F3" p-id="37510"></path><path d="M129.286269 813.350929m-62.190917 0a62.190916 62.190916 0 1 0 124.381833 0 62.190916 62.190916 0 1 0-124.381833 0Z" fill="#EBF0F3" p-id="37511"></path><path d="M129.286269 813.350929m-51.202813 0a51.202813 51.202813 0 1 0 102.405625 0 51.202813 51.202813 0 1 0-102.405625 0Z" fill="#64798A" p-id="37512"></path><path d="M296.816305 83.871274h258.468364v874.479286H296.816305z" fill="#D15241" p-id="37513"></path><path d="M296.816305 65.651523h258.468364v874.479287H296.816305z" fill="#E56353" p-id="37514"></path><path d="M342.739661 140.878572h166.686239V409.480827h-166.686239z" fill="#FFFFFF" p-id="37515"></path><path d="M368.991103 172.46364h114.181272v17.857231h-114.181272zM368.991103 219.3683h114.181272v17.857231h-114.181272zM368.991103 266.250042h114.181272v17.857231h-114.181272zM368.991103 313.131784h114.181272v17.857231h-114.181272zM368.991103 360.01561h114.181272v17.857231h-114.181272z" fill="#EBF0F3" p-id="37516"></path><path d="M426.081739 813.350929m-62.190917 0a62.190916 62.190916 0 1 0 124.381833 0 62.190916 62.190916 0 1 0-124.381833 0Z" fill="#EBF0F3" p-id="37517"></path><path d="M426.081739 813.350929m-51.202813 0a51.202813 51.202813 0 1 0 102.405625 0 51.202813 51.202813 0 1 0-102.405625 0Z" fill="#64798A" p-id="37518"></path><path d="M1024.012501 912.893897l-250.534596 63.530573L558.530681 128.788325 809.065277 65.253584z" fill="#3EA69B" p-id="37519"></path><path d="M1019.528921 895.180424l-250.532512 63.532656L554.051268 111.083185l250.530429-63.532656z" fill="#44C4A1" p-id="37520"></path><path d="M844.644314 392.129874l-161.558874 40.968917-66.022377-260.355969 161.558875-40.968917z" fill="#FFFFFF" p-id="37521"></path><path d="M765.32329 186.124807l-110.676913 28.066126-4.389824-17.309285 110.676913-28.064041zM776.865591 231.596055l-110.674829 28.064042-4.389825-17.309284 110.67483-28.064042zM788.393308 277.056886l-110.678997 28.064041-4.387741-17.309284 110.676913-28.064041zM799.914774 322.494799l-110.678996 28.066125-4.387742-17.309285 110.676913-28.064041zM811.42999 367.916044l-110.678997 28.066125-4.387741-17.309285 110.676913-28.064041z" fill="#EBF0F3" p-id="37522"></path><path d="M800.952331 804.179592a62.190916 62.190916 0 1 0 124.381832 0 62.190916 62.190916 0 1 0-124.381832 0Z" fill="#EBF0F3" p-id="37523"></path><path d="M811.940435 804.175425a51.202813 51.202813 0 1 0 102.405625 0 51.202813 51.202813 0 1 0-102.405625 0Z" fill="#64798A" p-id="37524"></path></svg>