<?xml version="1.0" standalone="no"?><!DOCTYPE svg PUBLIC "-//W3C//DTD SVG 1.1//EN" "http://www.w3.org/Graphics/SVG/1.1/DTD/svg11.dtd"><svg t="1726125113066" class="icon" viewBox="0 0 1024 1024" version="1.1" xmlns="http://www.w3.org/2000/svg" p-id="43324" xmlns:xlink="http://www.w3.org/1999/xlink" width="256" height="256"><path d="M830.16704 609.267712H683.008v91.58656c0 2.828288-0.073728 5.576704-0.208896 8.255488-0.03072 0.643072-0.08192 1.28-0.118784 1.923072-0.079872 1.24928-0.172032 2.486272-0.282624 3.704832-7.09632 87.81824-80.779264 157.126656-170.397696 157.126656s-163.301376-69.308416-170.397696-157.126656a138.932224 138.932224 0 0 1-0.282624-3.704832c-0.036864-0.641024-0.088064-1.28-0.118784-1.923072a161.271808 161.271808 0 0 1-0.208896-8.255488v-91.58656H193.83296c-18.548736 0-33.583104 15.036416-33.583104 33.583104v268.683264c0 18.548736 15.036416 33.583104 33.583104 33.583104h636.33408c18.548736 0 33.583104-15.036416 33.583104-33.583104V642.852864c0-18.548736-15.034368-33.585152-33.583104-33.585152z" fill="#83E1E5" p-id="43325"></path><path d="M512 765.333504c35.555328 0 64.479232-28.925952 64.479232-64.479232v-87.455744A170.02496 170.02496 0 0 1 512 626.059264a170.06592 170.06592 0 0 1-64.479232-12.660736v87.455744c0 35.55328 28.923904 64.479232 64.479232 64.479232z" fill="#83E1E5" p-id="43326"></path><path d="M830.16704 945.119232H193.83296c-18.548736 0-33.583104-15.036416-33.583104-33.583104v68.640768c0 18.548736 15.036416 33.583104 33.583104 33.583104h636.33408c18.548736 0 33.583104-15.036416 33.583104-33.583104v-68.640768c0 18.546688-15.034368 33.583104-33.583104 33.583104z" fill="#AAB1BA" p-id="43327"></path><path d="M512 49.453056c-94.296064 0-171.008 76.716032-171.008 171.008v480.393216c0 94.291968 76.713984 171.008 171.008 171.008s171.010048-76.716032 171.010048-171.008V220.461056c-0.002048-94.291968-76.713984-171.008-171.010048-171.008z m64.479232 651.401216c0 35.551232-28.923904 64.479232-64.479232 64.479232s-64.479232-28.925952-64.479232-64.479232v-87.455744A170.02496 170.02496 0 0 0 512 626.059264a170.06592 170.06592 0 0 0 64.479232-12.660736v87.455744z m-128.673792-240.195584c2.854912-32.93184 30.531584-58.871808 64.19456-58.871808 33.662976 0 61.339648 25.939968 64.19456 58.871808-2.854912 32.93184-30.533632 58.871808-64.19456 58.871808s-61.339648-25.939968-64.19456-58.871808z m128.673792-152.73984A170.02496 170.02496 0 0 0 512 295.258112a170.06592 170.06592 0 0 0-64.479232 12.660736v-87.455744c0-35.551232 28.923904-64.479232 64.479232-64.479232s64.479232 28.925952 64.479232 64.479232v87.455744z" fill="#FDDF7F" p-id="43328"></path><path d="M330.752 29.057024a10.24 10.24 0 0 1 10.24-10.24h8.577024V10.24c0-5.656576 4.583424-10.24 10.24-10.24s10.24 4.583424 10.24 10.24v8.577024h8.577024c5.656576 0 10.24 4.583424 10.24 10.24s-4.583424 10.24-10.24 10.24h-8.577024v8.577024c0 5.656576-4.583424 10.24-10.24 10.24s-10.24-4.583424-10.24-10.24v-8.577024H340.992a10.24 10.24 0 0 1-10.24-10.24zM196.222976 377.088H204.8v8.577024c0 5.656576 4.583424 10.24 10.24 10.24s10.24-4.583424 10.24-10.24v-8.577024h8.577024c5.656576 0 10.24-4.583424 10.24-10.24s-4.583424-10.24-10.24-10.24H225.28v-8.577024c0-5.656576-4.583424-10.24-10.24-10.24s-10.24 4.583424-10.24 10.24v8.577024h-8.577024c-5.656576 0-10.24 4.583424-10.24 10.24s4.583424 10.24 10.24 10.24z m562.518016 155.183104h8.577024v8.577024c0 5.656576 4.583424 10.24 10.24 10.24s10.24-4.583424 10.24-10.24v-8.577024h8.577024c5.656576 0 10.24-4.583424 10.24-10.24s-4.583424-10.24-10.24-10.24h-8.577024v-8.577024c0-5.656576-4.583424-10.24-10.24-10.24s-10.24 4.583424-10.24 10.24v8.577024h-8.577024c-5.656576 0-10.24 4.583424-10.24 10.24s4.583424 10.24 10.24 10.24z m115.2512 110.58176v337.324032c0 24.164352-19.6608 43.823104-43.823104 43.823104H193.83296c-24.164352 0-43.823104-19.6608-43.823104-43.823104V642.852864c0-24.164352 19.6608-43.823104 43.823104-43.823104h104.493056c5.656576 0 10.24 4.583424 10.24 10.24s-4.583424 10.24-10.24 10.24H193.83296c-12.87168 0-23.343104 10.471424-23.343104 23.343104v268.683264c0 12.87168 10.471424 23.343104 23.343104 23.343104h636.336128c12.87168 0 23.343104-10.471424 23.343104-23.343104V642.852864c0-12.87168-10.471424-23.343104-23.343104-23.343104H731.136c-5.656576 0-10.24-4.583424-10.24-10.24s4.583424-10.24 10.24-10.24h99.03104c24.164352-0.002048 43.825152 19.658752 43.825152 43.823104z m-20.48 305.758208c-0.739328 0.466944-1.499136 0.90112-2.267136 1.325056-0.086016 0.047104-0.165888 0.100352-0.251904 0.147456-1.10592 0.600064-2.248704 1.140736-3.407872 1.644544-0.313344 0.135168-0.630784 0.262144-0.948224 0.391168-0.937984 0.382976-1.8944 0.731136-2.863104 1.050624-0.284672 0.09216-0.565248 0.196608-0.854016 0.284672-1.216512 0.370688-2.451456 0.690176-3.710976 0.956416-0.268288 0.057344-0.540672 0.096256-0.811008 0.147456-1.03424 0.198656-2.082816 0.3584-3.141632 0.48128-0.364544 0.043008-0.724992 0.086016-1.091584 0.118784-1.318912 0.120832-2.648064 0.202752-3.997696 0.202752H193.83296c-1.349632 0-2.678784-0.083968-3.997696-0.202752-0.366592-0.032768-0.72704-0.075776-1.091584-0.118784a43.010048 43.010048 0 0 1-3.141632-0.48128c-0.270336-0.0512-0.54272-0.090112-0.811008-0.147456a43.208704 43.208704 0 0 1-3.710976-0.956416c-0.28672-0.088064-0.567296-0.190464-0.854016-0.284672-0.970752-0.31744-1.92512-0.667648-2.863104-1.050624-0.31744-0.129024-0.63488-0.256-0.948224-0.391168a44.261376 44.261376 0 0 1-3.40992-1.644544c-0.086016-0.045056-0.167936-0.100352-0.251904-0.147456a44.556288 44.556288 0 0 1-2.267136-1.325056v31.563776c0 12.87168 10.471424 23.343104 23.343104 23.343104h636.336128c12.87168 0 23.343104-10.471424 23.343104-23.343104v-31.563776zM326.656 871.86432a10.24 10.24 0 0 1 10.24-10.24h91.48416c-57.964544-30.271488-97.62816-90.97216-97.62816-160.770048V466.266112c0-1.656832 0.055296-3.299328 0.11264-4.941824l0.022528-0.649216-0.026624-0.786432c-0.053248-1.60768-0.108544-3.213312-0.108544-4.835328V220.461056c0-99.940352 81.307648-181.248 181.248-181.248s181.248 81.307648 181.248 181.248v234.590208c0 1.622016-0.053248 3.227648-0.108544 4.835328l-0.026624 0.770048 0.026624 0.770048c0.053248 1.60768 0.108544 3.213312 0.108544 4.835328v234.58816c0 69.797888-39.663616 130.49856-97.62816 160.770048h91.48416c5.656576 0 10.24 4.583424 10.24 10.24s-4.583424 10.24-10.24 10.24h-350.208a10.231808 10.231808 0 0 1-10.24-10.235904z m185.344-10.24c88.64768 0 160.768-72.122368 160.768-160.770048v-162.308096c-0.262144 0.505856-0.55296 0.997376-0.821248 1.499136a184.397824 184.397824 0 0 1-3.465216 6.221824 187.676672 187.676672 0 0 1-2.22208 3.694592c-0.479232 0.776192-0.95232 1.55648-1.44384 2.32448a178.464768 178.464768 0 0 1-2.592768 3.934208c-0.428032 0.636928-0.845824 1.282048-1.282048 1.912832a180.742144 180.742144 0 0 1-4.06528 5.646336c-0.186368 0.249856-0.385024 0.489472-0.57344 0.73728a182.915072 182.915072 0 0 1-3.745792 4.777984c-0.52224 0.641024-1.062912 1.267712-1.593344 1.90464a175.046656 175.046656 0 0 1-2.94912 3.457024c-0.616448 0.700416-1.245184 1.390592-1.871872 2.082816a174.630912 174.630912 0 0 1-7.933952 8.218624c-0.669696 0.651264-1.335296 1.302528-2.013184 1.943552a174.092288 174.092288 0 0 1-3.393536 3.104768c-0.610304 0.546816-1.212416 1.10592-1.828864 1.644544a178.991104 178.991104 0 0 1-4.907008 4.128768c-0.167936 0.135168-0.32768 0.278528-0.495616 0.415744a183.472128 183.472128 0 0 1-5.562368 4.298752c-0.63488 0.473088-1.286144 0.925696-1.929216 1.390592-1.28 0.925696-2.562048 1.845248-3.868672 2.738176-0.761856 0.52224-1.536 1.028096-2.308096 1.540096-1.220608 0.80896-2.449408 1.609728-3.692544 2.390016a174.493696 174.493696 0 0 1-6.238208 3.7376c-0.817152 0.468992-1.634304 0.940032-2.461696 1.396736-1.36192 0.753664-2.740224 1.478656-4.124672 2.199552-0.751616 0.38912-1.49504 0.790528-2.2528 1.171456-1.796096 0.90112-3.61472 1.769472-5.44768 2.613248-0.323584 0.149504-0.638976 0.313344-0.96256 0.462848v80.719872c0 41.199616-33.517568 74.719232-74.717184 74.719232s-74.717184-33.519616-74.717184-74.719232V466.266112c0-1.941504 0.100352-3.946496 0.321536-6.500352 3.315712-38.250496 35.9936-68.220928 74.395648-68.220928a73.814016 73.814016 0 0 1 32.059392 7.258112 10.24 10.24 0 1 1-8.824832 18.479104 53.53472 53.53472 0 0 0-23.236608-5.257216c-27.869184 0-51.585024 21.74976-53.991424 49.518592-0.169984 1.943552-0.24576 3.397632-0.24576 4.722688v234.58816c0 29.908992 24.332288 54.239232 54.237184 54.239232s54.237184-24.332288 54.237184-54.239232v-72.91904a179.769344 179.769344 0 0 1-54.237184 8.36608c-8.3968 0-17.168384-0.6656-26.07104-1.982464a10.24 10.24 0 0 1-8.634368-11.626496c0.825344-5.595136 6.02112-9.486336 11.626496-8.634368 8.02816 1.185792 15.577088 1.76128 23.08096 1.76128a159.440896 159.440896 0 0 0 60.604416-11.89888 161.150976 161.150976 0 0 0 21.069824-10.46528c46.876672-27.72992 77.162496-77.799424 78.958592-133.13024l0.038912-1.140736c0.045056-1.374208 0.096256-2.748416 0.096256-4.134912V220.461056c0-88.64768-72.12032-160.768-160.768-160.768s-160.768 72.12032-160.768 160.768v162.297856a180.852736 180.852736 0 0 1 3.416064-6.234112c0.17408-0.305152 0.356352-0.608256 0.53248-0.913408a186.908672 186.908672 0 0 1 4.01408-6.598656c0.917504-1.435648 1.85344-2.854912 2.809856-4.261888 0.417792-0.618496 0.833536-1.23904 1.25952-1.851392 0.219136-0.313344 0.425984-0.636928 0.64512-0.950272l0.186368-0.262144c0.595968-0.837632 1.216512-1.652736 1.824768-2.480128 0.567296-0.774144 1.1264-1.554432 1.705984-2.318336 0.714752-0.940032 1.452032-1.859584 2.183168-2.78528a181.323776 181.323776 0 0 1 5.257216-6.367232c0.309248-0.3584 0.608256-0.724992 0.9216-1.081344 1.050624-1.196032 2.134016-2.36544 3.21536-3.5328 0.325632-0.350208 0.641024-0.7168 0.968704-1.06496l0.350208-0.366592 0.11264-0.114688a183.216128 183.216128 0 0 1 3.643392-3.715072c0.34816-0.346112 0.690176-0.692224 1.042432-1.03424a178.651136 178.651136 0 0 1 3.774464-3.590144l0.95232-0.872448a184.055808 184.055808 0 0 1 4.067328-3.610624c0.159744-0.137216 0.323584-0.270336 0.485376-0.407552a181.096448 181.096448 0 0 1 19.171328-14.268416c0.557056-0.362496 1.112064-0.729088 1.673216-1.083392 1.20832-0.761856 2.430976-1.50528 3.657728-2.240512 0.415744-0.247808 0.823296-0.514048 1.23904-0.759808l0.190464-0.110592c0.362496-0.212992 0.73728-0.4096 1.099776-0.620544a195.149824 195.149824 0 0 1 3.506176-1.97632c0.9728-0.53248 1.95584-1.050624 2.93888-1.56672 1.056768-0.555008 2.111488-1.112064 3.182592-1.646592a175.220736 175.220736 0 0 1 4.151296-1.990656c0.626688-0.292864 1.236992-0.610304 1.867776-0.897024v-80.72192c0-41.199616 33.517568-74.717184 74.717184-74.717184s74.717184 33.517568 74.717184 74.717184v234.590208c0 1.939456-0.100352 3.944448-0.321536 6.498304-3.315712 38.250496-35.9936 68.220928-74.395648 68.220928-9.824256 0-19.412992-1.91488-28.502016-5.685248a10.24 10.24 0 0 1-5.531648-13.38368 10.235904 10.235904 0 0 1 13.38368-5.531648A53.571584 53.571584 0 0 0 512 509.294592c27.869184 0 51.585024-21.74976 53.991424-49.516544 0.169984-1.9456 0.24576-3.39968 0.24576-4.722688V220.461056c0-29.906944-24.332288-54.237184-54.237184-54.237184s-54.237184 24.332288-54.237184 54.237184v72.921088A179.718144 179.718144 0 0 1 512 285.014016c9.648128 0 19.5072 0.815104 29.308928 2.428928a10.235904 10.235904 0 1 1-3.319808 20.207616c-30.007296-4.927488-59.373568-1.380352-86.591488 9.744384a160.468992 160.468992 0 0 0-20.52096 10.162176c-0.059392 0.036864-0.12288 0.069632-0.182272 0.104448a161.871872 161.871872 0 0 0-18.587648 12.785664l-0.221184 0.176128a162.156544 162.156544 0 0 0-16.5376 15.202304l-0.258048 0.272384a161.50528 161.50528 0 0 0-10.391552 12.19584c-0.217088 0.280576-0.44032 0.557056-0.65536 0.841728-0.74752 0.980992-1.468416 1.980416-2.19136 2.975744-0.483328 0.669696-0.978944 1.3312-1.452032 2.00704-0.473088 0.673792-0.929792 1.366016-1.394688 2.050048-0.636928 0.937984-1.28 1.87392-1.896448 2.82624-0.26624 0.4096-0.520192 0.82944-0.782336 1.241088-0.780288 1.2288-1.55648 2.459648-2.301952 3.710976-0.129024 0.21504-0.249856 0.434176-0.376832 0.649216a160.395264 160.395264 0 0 0-2.535424 4.427776l-0.026624 0.049152a160.33792 160.33792 0 0 0-18.167808 54.315008c-0.036864 0.256-0.06144 0.516096-0.096256 0.772096a159.719424 159.719424 0 0 0-0.622592 4.968448 160.78848 160.78848 0 0 0-0.825344 11.85792l-0.036864 1.05472c-0.047104 1.404928-0.100352 2.807808-0.100352 4.225024v234.58816c-0.004096 88.64768 72.116224 160.770048 160.763904 160.770048z m-215.552 0h-8.192c-5.656576 0-10.24 4.583424-10.24 10.24s4.583424 10.24 10.24 10.24h8.192c5.656576 0 10.24-4.583424 10.24-10.24s-4.583424-10.24-10.24-10.24z m431.104 20.48h8.192c5.656576 0 10.24-4.583424 10.24-10.24s-4.583424-10.24-10.24-10.24h-8.192c-5.656576 0-10.24 4.583424-10.24 10.24s4.583424 10.24 10.24 10.24z" fill="#1C1D21" p-id="43329"></path></svg>