<?xml version="1.0" standalone="no"?><!DOCTYPE svg PUBLIC "-//W3C//DTD SVG 1.1//EN" "http://www.w3.org/Graphics/SVG/1.1/DTD/svg11.dtd"><svg t="1726123950230" class="icon" viewBox="0 0 1024 1024" version="1.1" xmlns="http://www.w3.org/2000/svg" p-id="9705" xmlns:xlink="http://www.w3.org/1999/xlink" width="256" height="256"><path d="M176 46.08h800v576H176z" fill="#348FD9" p-id="9706"></path><path d="M240 110.08h672v448H240z" fill="#9FE4ED" p-id="9707"></path><path d="M352 222.08m-48 0a48 48 0 1 0 96 0 48 48 0 1 0-96 0Z" fill="#FFA912" p-id="9708"></path><path d="M48 206.08h800v576H48z" fill="#44546C" p-id="9709"></path><path d="M112 270.08h672v448H112z" fill="#9FE4ED" p-id="9710"></path><path d="M224 382.08m-48 0a48 48 0 1 0 96 0 48 48 0 1 0-96 0Z" fill="#FFA912" p-id="9711"></path><path d="M821.376 234.176L971.52 756.96l-768.8 220.8-150.144-522.784z" fill="#FFA912" p-id="9712"></path><path d="M777.536 313.344l114.816 399.776L246.56 898.592 131.744 498.816z" fill="#9FE4ED" p-id="9713"></path><path d="M792.096 523.536l57.968 201.856 42.304-12.16-114.832-399.84L131.632 498.928l10.304 35.84 441.456-126.784a168.688 168.688 0 0 1 208.704 115.568z" opacity=".2" p-id="9714"></path><path d="M618.56 618.88l-213.28-123.68-179.52 331.68 30.24 99.2 448-128-80-176" fill="#7EB457" p-id="9715"></path><path d="M624 622.08l-5.44-3.2-213.28-123.68-10.8 19.968a212.064 212.064 0 0 1-59.664 329.248L240 894.08l16 32 448-128z" opacity=".2" p-id="9716"></path><path d="M498.08 826.4l120.48-207.52 59.2-102.08L880 622.08l32 96z" fill="#7EB457" p-id="9717"></path><path d="M880 622.08L677.76 516.8l-15.424 26.608a117.92 117.92 0 0 1-10.352 203.568L498.08 826.4 912 718.08z" opacity=".21" p-id="9718"></path><path d="M821.376 234.24L52.464 455.04l150.16 522.864 768.912-220.832zM131.632 498.896l645.888-185.504 114.848 399.84L246.464 898.72z" fill="#FFA912" p-id="9719"></path><path d="M588.736 467.504m-48 0a48 48 0 1 0 96 0 48 48 0 1 0-96 0Z" fill="#FFA912" p-id="9720"></path></svg>